<svg xmlns="http://www.w3.org/2000/svg" viewBox="0 0 24 24" aria-hidden="true" role="img">
  <g fill="#EA1D25">
    <path d="M12.9 2.2c.7-1 1-1.8.8-2.9 1.3 1.7 1 3.7-.5 5.2-.8.8-1.9 1.5-2.3 2.7-.3.9.1 1.9.8 2.8-2-1.3-2.8-3.2-2.1-4.8.5-1.1 1.8-1.8 3.3-3Z"/>
    <path d="M16.3 5.2c1.1-.7 2.3-1.1 3.5-1.4-1 .7-1.9 1.4-2.4 2.3-.6 1-.4 2 .4 3.2.8 1 1 2 .6 2.9-.4.9-1.1 1.6-2.3 2.2.6-2.1-.1-3.5-1.1-4.7-1.5-1.9-1.6-3.7-.5-5.2.5-.5 1-.9 1.8-1.3Z"/>
  </g>
  <g fill="#2A78C7">
    <path d="M5.2 13.6c1.9-.8 5.9-1.1 10-.1-1 .8-3.2 1.3-5.4 1.3-2.1 0-3.7-.3-4.6-1.2Z"/>
    <path d="M6.9 16.7c1.4-.5 4.1-.6 6.9-.1-.8.7-2.2 1-3.8 1-1.5 0-2.6-.2-3.1-.9Z"/>
    <path d="M3.8 18.9c2.4-.8 8.2-.9 12.3-.1-1.2 1-3.8 1.5-6.4 1.5-2.2 0-4.3-.4-5.9-1.4Z"/>
    <path d="M16.7 13.4c1.4.4 2 1.6 1.2 2.7-.5.6-1.3 1.1-2.3 1.5.9-.8 1.3-1.5 1.3-2.2 0-.6-.1-1.3-.2-2Z"/>
  </g>
</svg>
